<?xml version="1.0" encoding="utf-8"?>
<!-- Generator: Adobe Illustrator 24.0.3, SVG Export Plug-In . SVG Version: 6.00 Build 0)  -->
<svg version="1.1" id="Layer_1" xmlns="http://www.w3.org/2000/svg" xmlns:xlink="http://www.w3.org/1999/xlink" x="0px" y="0px"
	 viewBox="0 0 800 799.1" style="enable-background:new 0 0 800 799.1;" xml:space="preserve">
<style type="text/css">
	.st0{fill:#354552;}
	.st1{fill:#2AD2C9;}
</style>
<g>
	<g>
		<polygon class="st0" points="41.7,611.2 79.4,611.2 79.4,494.7 121.3,494.7 121.3,460.9 0,460.9 0,494.7 41.7,494.7 		"/>
		<path class="st0" d="M226.4,611.2h41.9l-29.7-55l1.9-1.2c7.2-4.3,13-10.1,17.1-17.2c4.1-7.1,6.2-15.3,6.2-24.4
			c0-7.8-1.4-14.9-4.1-21.3c-2.7-6.4-6.5-12-11.3-16.6c-4.8-4.6-10.6-8.3-17.2-10.8c-6.6-2.5-14.1-3.8-22.1-3.8h-64.2v150.3h37.7
			v-47.4h18.9L226.4,611.2z M182.5,494.1h21.6c6.6,0,11.8,1.8,15.5,5.4c3.7,3.6,5.5,8.2,5.5,13.7c0,5.5-1.9,10.1-5.5,13.7
			c-3.7,3.6-8.9,5.4-15.5,5.4h-21.6V494.1z"/>
		<path class="st0" d="M337.2,460.9l-58.5,150.3h40.1l8.6-25.2h57.7l8.6,25.2h41.4l-59.8-150.3H337.2z M336,557.2l20.2-57.4
			l20.2,57.4H336z"/>
		<polygon class="st0" points="460.6,460.9 417.4,460.9 475.7,611.2 511.8,611.2 568.8,460.9 525.9,460.9 493.7,562.5 		"/>
		<polygon class="st0" points="626.2,551 676.7,551 676.7,520.9 626.2,520.9 626.2,493.2 684.1,493.2 684.1,460.9 588.7,460.9 
			588.7,611.2 684.1,611.2 684.1,578.9 626.2,578.9 		"/>
		<polygon class="st0" points="745.4,460.9 707.2,460.9 707.2,611.2 800,611.2 800,576.7 745.4,576.7 		"/>
		<path class="st0" d="M106.5,764.7c-7.8,0-14.2-2.4-19-7.2c-4.8-4.8-7.3-11.3-7.3-19.2v-89.5H41.6v90.1c0,8.9,1.6,17.1,4.8,24.4
			c3.2,7.3,7.6,13.7,13.3,18.9c5.7,5.2,12.6,9.3,20.6,12.2c8,2.9,16.9,4.4,26.4,4.4c9.5,0,18.3-1.5,26.2-4.4
			c7.9-2.9,14.8-7,20.5-12.2c5.7-5.2,10.2-11.6,13.3-18.9c3.2-7.4,4.8-15.6,4.8-24.4v-90.1h-38.7v89.5c0,7.9-2.4,14.4-7.3,19.2
			C120.5,762.2,114.2,764.7,106.5,764.7z"/>
		<rect x="364.8" y="648.8" class="st0" width="38.2" height="150.3"/>
		<path class="st0" d="M579.6,754.2c3.9-9.1,5.9-19.3,5.9-30.3s-2-21.2-5.9-30.3c-3.9-9.1-9.4-17.1-16.4-23.6
			c-7-6.5-15.5-11.8-25.2-15.5c-9.7-3.7-20.5-5.6-32.1-5.6c-11.6,0-22.4,1.9-32.2,5.6c-9.8,3.7-18.3,9-25.4,15.6
			c-7.1,6.6-12.6,14.6-16.5,23.7c-3.9,9.1-5.9,19.3-5.9,30.1s2,21,5.9,30.1c3.9,9.1,9.5,17.1,16.5,23.7c7.1,6.6,15.6,11.9,25.4,15.6
			c9.8,3.7,20.6,5.6,32.2,5.6c11.6,0,22.4-1.9,32.1-5.6c9.7-3.7,18.2-8.9,25.2-15.5C570.2,771.2,575.7,763.3,579.6,754.2z
			 M544.2,740.5c-2,5.1-4.9,9.5-8.6,13.2c-3.7,3.7-8.1,6.6-13.1,8.7c-5,2.1-10.6,3.1-16.5,3.1c-6,0-11.6-1-16.6-3.1
			c-5.1-2.1-9.5-5-13.2-8.7c-3.7-3.7-6.6-8.1-8.7-13.2c-2.1-5.1-3.1-10.7-3.1-16.7c0-6,1.1-11.6,3.1-16.7c2.1-5.1,5-9.5,8.7-13.2
			c3.7-3.7,8.1-6.6,13.2-8.7c10.2-4.1,23.1-4.1,33.2,0c5,2.1,9.4,5,13.1,8.7c3.7,3.7,6.6,8.2,8.6,13.2c2,5.1,3,10.7,3,16.7
			C547.2,729.8,546.2,735.4,544.2,740.5z"/>
		<polygon class="st0" points="707,732.5 642.9,648.8 608.4,648.8 608.4,799.1 645.8,799.1 645.8,708.5 707.1,799.1 745.3,799.1 
			745.3,648.8 707,648.8 		"/>
		<polygon class="st0" points="296.3,732.5 232.2,648.8 197.6,648.8 197.6,799.1 235.1,799.1 235.1,708.5 296.4,799.1 334.5,799.1 
			334.5,648.8 296.3,648.8 		"/>
	</g>
	<g>
		<path class="st1" d="M246.4,98.4v19h97.7v-69h-43.9C270.6,48.4,247.6,70.8,246.4,98.4z"/>
		<path class="st1" d="M499.8,48.4l-141.8,0v262.3h83.8l0-193.3h111.7V98.2C552.1,70.3,529.5,48.4,499.8,48.4z"/>
		<rect x="455.9" y="131.2" class="st0" width="97.7" height="48.2"/>
		<rect x="455.9" y="193.3" class="st0" width="97.7" height="48.3"/>
		<rect x="246.4" y="131.2" class="st0" width="97.7" height="48.2"/>
		<rect x="246.4" y="193.3" class="st0" width="97.7" height="48.3"/>
		<path class="st0" d="M455.9,255.4v66.7c0,0,0,0,0.1,0c0.6,9,8.1,16.1,17.4,16.1c9.2,0,16.9-6.9,17.5-15.9c0.1,0,0-11.6,0-11.6
			l6.7,0c33.8,0.6,55.2-25,56.1-52.2v-3H455.9z"/>
		<path class="st0" d="M344.1,255.4v66.7c0,0,0,0-0.1,0c-0.6,9-8.1,16.1-17.4,16.1c-9.2,0-16.9-6.9-17.5-15.9c-0.1,0,0-11.6,0-11.6
			l-6.7,0c-33.8,0.6-55.2-25-56.1-52.2v-3H344.1z"/>
		<g>
			<path class="st0" d="M452.1,0H347.5C337.9,0,330,7.8,330,17.3s7.8,17.3,17.5,17.3h3.6c0,0,0,0,0-0.1c0-9.6,7.8-17.3,17.5-17.3
				H379h42h10.4c9.7,0,17.5,7.8,17.5,17.3c0,0,0,0,0,0.1h3.2c9.7,0,17.5-7.8,17.5-17.3S461.8,0,452.1,0z"/>
		</g>
	</g>
</g>
</svg>
