<?xml version="1.0" encoding="utf-8"?>
<!-- Generator: Adobe Illustrator 22.1.0, SVG Export Plug-In . SVG Version: 6.00 Build 0)  -->
<svg version="1.1" id="Layer_1" xmlns="http://www.w3.org/2000/svg" xmlns:xlink="http://www.w3.org/1999/xlink" x="0px" y="0px"
	 viewBox="0 0 455 156" style="enable-background:new 0 0 455 156;" xml:space="preserve">
<style type="text/css">
	.st0{fill:#333333;}
	.st1{fill:#989898;}
	.st2{fill:#FFFFFF;}
	.st3{fill:#4EC2BF;}
	.st4{fill:#010101;}
	.st5{fill:#364653;}
	.st6{fill:#4E4E4E;}
</style>
<g>
	<g>
		<path class="st5" d="M181.4,24l0,16.7l22.1,0l-0.1,73.4l17,0l0.1-73.4l22.1,0l0-16.7L181.4,24z"/>
		<path class="st5" d="M308.1,24.1l0,8.6l16.9,0l0-8.6L308.1,24.1z M308.1,80.3c0,10.1-8.1,18.5-18.2,18.5c-10,0-18.2-8.4-18.2-18.5
			l0-56.3l-16.8,0l0,56.3c0,19.3,15.7,35,35,35c9.3,0,18.2-3.7,24.9-10.2c6.6-6.6,10.2-15.4,10.3-24.8l0-30.3l-16.9,0L308.1,80.3z
			 M308.1,36.5l0,9.7l16.9,0l0-9.7L308.1,36.5z"/>
	</g>
	<g>
		<path class="st5" d="M95.1,59.5C89.8,54.1,82.7,51,75.3,51c-3.7,0-7.3,0.8-10.9,2.4C61,55,57.9,57.2,55.3,60
			c-0.1,0.1-0.1,0.1-0.3,0.2c-0.1-0.1-0.2-0.1-0.2-0.2c-2.8-2.8-5.8-5-9.1-6.6c-3.5-1.6-7.2-2.4-10.9-2.4c-4.2,0-8.3,1.5-12.3,5.5
			l0-4.4l-15.8,0l0,60.7l15.8,0l0-32.5c0-7,5.6-13.2,12.3-13.2c6.7,0,12.3,6.1,12.3,13.3l0,32.5l15.8,0l0-32.5
			c0-7.2,5.6-13.2,12.4-13.2c6.6,0,12.3,6.2,12.2,13.3l0,32.5l15.8,0l0-32.5C103.3,72.6,100.4,65.2,95.1,59.5z"/>
		<path class="st5" d="M125,125.7l-3.7,9.5l16.5,0l3.7-9.5L125,125.7z M116.1,148.2l16.6,0l3.6-9.2l-16.5,0L116.1,148.2z
			 M152.9,52.3L138.2,90l-14.4-37.8l-17,0l23.1,60.8l-3.5,8.8l16.4,0l26.9-69.6L152.9,52.3z"/>
	</g>
	<g>
		<g>
			<path class="st3" d="M346,40l0,6.2l32,0l0-22.6l-14.4,0C353.9,23.6,346.4,31,346,40z"/>
			<path class="st3" d="M428.9,23.7l-46.4,0l-0.1,85.8l27.4,0l0-63.2l36.6,0l0-6.3C446,30.9,438.6,23.7,428.9,23.7z"/>
			<rect x="414.5" y="50.8" class="st5" width="32" height="15.8"/>
			<rect x="414.5" y="71.1" class="st5" width="32" height="15.8"/>
			<rect x="346" y="50.7" class="st5" width="32" height="15.8"/>
			<rect x="346" y="71" class="st5" width="32" height="15.8"/>
			<path class="st5" d="M414.5,91.4l0,21.8c0,0,0,0,0,0c0.2,2.9,2.7,5.3,5.7,5.3c3,0,5.6-2.2,5.7-5.2c0,0,0-3.8,0-3.8l2.2,0
				c11,0.2,18.1-8.2,18.4-17.1l0-1L414.5,91.4L414.5,91.4z"/>
			<path class="st5" d="M377.9,91.4l0,21.8c0,0,0,0,0,0c-0.2,2.9-2.7,5.3-5.7,5.3c-3,0-5.5-2.3-5.7-5.2c0,0,0-3.8,0-3.8l-2.2,0
				c-11,0.2-18.1-8.2-18.4-17.1l0-1L377.9,91.4L377.9,91.4z"/>
			<g>
				<path class="st5" d="M413.3,7.8l-34.2,0c-3.2,0-5.7,2.5-5.7,5.7s2.6,5.7,5.7,5.7l1.2,0l0,0c0-3.1,2.6-5.7,5.7-5.7l3.4,0l13.7,0
					l3.4,0c3.2,0,5.7,2.5,5.7,5.7v0l1.1,0c3.2,0,5.7-2.5,5.7-5.7S416.5,7.8,413.3,7.8z"/>
			</g>
		</g>
	</g>
</g>
</svg>
