<svg width="512" height="512" viewBox="0 0 512 512" fill="none" xmlns="http://www.w3.org/2000/svg">
<path d="M24.701 198.789L1.976 238.558C0.681 240.824 0 243.39 0 246V456C0 464.284 6.716 471 15 471H125V176C125 167.716 118.284 161 110 161H89.819C62.973 161 38.021 175.48 24.701 198.789Z" fill="#FFC89A"/>
<path d="M385 512H155C130.147 512 110 491.853 110 467V45C110 20.147 130.147 0 155 0H385C409.853 0 430 20.147 430 45V467C430 491.853 409.853 512 385 512Z" fill="#354552"/>
<path d="M385 0H270V512H385C409.853 512 430 491.853 430 467V45C430 20.147 409.853 0 385 0Z" fill="#475B6B"/>
<path d="M473.25 238.5H408.75C387.349 238.5 370 221.151 370 199.75C370 178.349 387.349 161 408.75 161H473.25C494.651 161 512 178.349 512 199.75C512 221.151 494.651 238.5 473.25 238.5Z" fill="#FAB68C"/>
<path d="M473.25 316H408.75C387.349 316 370 298.651 370 277.25C370 255.849 387.349 238.5 408.75 238.5H473.25C494.651 238.5 512 255.849 512 277.25C512 298.651 494.651 316 473.25 316Z" fill="#FAB68C"/>
<path d="M473.25 393.5H408.75C387.349 393.5 370 376.151 370 354.75C370 333.349 387.349 316 408.75 316H473.25C494.651 316 512 333.349 512 354.75C512 376.151 494.651 393.5 473.25 393.5Z" fill="#FAB68C"/>
<path d="M473.25 471H408.75C387.349 471 370 453.651 370 432.25C370 410.849 387.349 393.5 408.75 393.5H473.25C494.651 393.5 512 410.849 512 432.25C512 453.651 494.651 471 473.25 471Z" fill="#FAB68C"/>
<path d="M270 266.5C234.159 266.5 205 237.341 205 201.5C205 165.659 234.159 136.5 270 136.5C305.841 136.5 335 165.659 335 201.5C335 237.341 305.841 266.5 270 266.5Z" fill="#F69B36" fill-opacity="0.7"/>
<path d="M210 95.5C218.284 95.5 225 88.7843 225 80.5C225 72.2157 218.284 65.5 210 65.5C201.716 65.5 195 72.2157 195 80.5C195 88.7843 201.716 95.5 210 95.5Z" fill="#BDBDBD"/>
<path d="M270 95.5C278.284 95.5 285 88.7843 285 80.5C285 72.2157 278.284 65.5 270 65.5C261.716 65.5 255 72.2157 255 80.5C255 88.7843 261.716 95.5 270 95.5Z" fill="#F69B36" fill-opacity="0.7"/>
<path d="M330 95.5C338.284 95.5 345 88.7843 345 80.5C345 72.2157 338.284 65.5 330 65.5C321.716 65.5 315 72.2157 315 80.5C315 88.7843 321.716 95.5 330 95.5Z" fill="#2AD2C9"/>
<path d="M270 446.5C234.159 446.5 205 417.341 205 381.5C205 345.659 234.159 316.5 270 316.5C305.841 316.5 335 345.659 335 381.5C335 417.341 305.841 446.5 270 446.5Z" fill="#2AD2C9" fill-opacity="0.6"/>
<path d="M270 136.5V266.5C305.841 266.5 335 237.341 335 201.5C335 165.659 305.841 136.5 270 136.5Z" fill="#F69B36"/>
<path d="M270 316.5V446.5C305.841 446.5 335 417.341 335 381.5C335 345.659 305.841 316.5 270 316.5Z" fill="#2AD2C9"/>
<path d="M270 65.5V95.5C278.284 95.5 285 88.784 285 80.5C285 72.216 278.284 65.5 270 65.5Z" fill="#F69B36"/>
<path d="M110 331C139.677 322.097 160 294.782 160 263.799V238.5H231.25C252.651 238.5 270 221.151 270 199.75C270 178.349 252.651 161 231.25 161H89.819C62.972 161 38.021 175.48 24.701 198.789L1.97601 238.558" fill="#FFC89A"/>
</svg>
