<svg width="511" height="511" viewBox="0 0 511 511" fill="none" xmlns="http://www.w3.org/2000/svg">
<g clip-path="url(#clip0)">
<path d="M451.095 341.243C437.36 378.467 416.588 410.833 389.348 437.433C358.343 467.71 317.742 491.769 268.674 508.93C267.064 509.492 265.384 509.952 263.696 510.291C261.466 510.731 259.197 510.969 256.947 511H256.507C254.109 511 251.7 510.759 249.31 510.291C247.622 509.952 245.965 509.492 244.363 508.942C195.236 491.807 154.585 467.761 123.548 437.484C96.2968 410.884 75.5288 378.537 61.8134 341.313C36.8739 273.633 38.293 199.075 39.4353 139.161L39.4548 138.241C39.6849 133.294 39.833 128.097 39.9149 122.358C40.332 94.183 62.7335 70.8731 90.9128 69.3019C149.665 66.0232 195.115 46.8615 233.949 9.00972L234.289 8.69783C240.737 2.78362 248.862 -0.116957 256.947 0.00390047C264.745 0.105265 272.511 3.00194 278.729 8.69783L279.06 9.00972C317.902 46.8615 363.352 66.0232 422.105 69.3019C450.284 70.8731 472.685 94.183 473.103 122.358C473.184 128.136 473.333 133.325 473.563 138.241L473.574 138.631C474.713 198.658 476.124 273.364 451.095 341.243Z" fill="#2AD2C9"/>
<path d="M451.094 341.243C437.359 378.467 416.587 410.833 389.348 437.433C358.342 467.71 317.742 491.769 268.673 508.93C267.063 509.492 265.383 509.952 263.695 510.291C261.465 510.731 259.196 510.969 256.946 511V0.00390625C264.744 0.105271 272.51 3.00195 278.728 8.69784L279.059 9.00973C317.901 46.8615 363.352 66.0232 422.104 69.3019C450.283 70.8731 472.685 94.183 473.102 122.358C473.184 128.136 473.332 133.325 473.562 138.241L473.573 138.631C474.712 198.658 476.123 273.364 451.094 341.243Z" fill="#11C0B7"/>
<path d="M383.85 255.5C383.85 325.57 326.958 382.607 256.946 382.857H256.498C186.28 382.857 129.142 325.722 129.142 255.5C129.142 185.282 186.28 128.148 256.498 128.148H256.946C326.958 128.397 383.85 185.434 383.85 255.5Z" fill="white"/>
<path d="M383.851 255.5C383.851 325.57 326.958 382.607 256.946 382.857V128.148C326.958 128.397 383.851 185.434 383.851 255.5Z" fill="#E1EBF0"/>
<path d="M314.303 237.161L256.946 294.525L244.553 306.919C241.625 309.847 237.785 311.309 233.948 311.309C230.108 311.309 226.272 309.847 223.34 306.919L196.693 280.26C190.837 274.405 190.837 264.919 196.693 259.06C202.541 253.204 212.038 253.204 217.894 259.06L233.948 275.114L293.102 215.96C298.958 210.101 308.455 210.101 314.303 215.96C320.159 221.816 320.159 231.313 314.303 237.161Z" fill="#2AD2C9"/>
<path d="M314.303 237.161L256.946 294.525V252.112L293.102 215.96C298.958 210.101 308.455 210.101 314.303 215.96C320.159 221.816 320.159 231.313 314.303 237.161Z" fill="#11C0B7"/>
</g>
<defs>
<clipPath id="clip0">
<rect width="511" height="511" fill="white"/>
</clipPath>
</defs>
</svg>
