<svg id="Layer_1" data-name="Layer 1" xmlns="http://www.w3.org/2000/svg" viewBox="0 0 1500 1000"><defs><style>.cls-1,.cls-7{fill:red;}.cls-2,.cls-4{fill:#005ce5;}.cls-3,.cls-5{fill:#fff;}.cls-4,.cls-5,.cls-6,.cls-7{fill-rule:evenodd;}.cls-6{fill:#ffe500;}</style></defs><path class="cls-1" d="M0,2.87H1500V997.13H0Z"/><path class="cls-2" d="M0,2.87H1500V665.71H0Z"/><path class="cls-3" d="M0,2.87H1500V334.29H0Z"/><path class="cls-4" d="M375,200.41c-2.43,0-4.86.05-7.28.12-47,1.22-91.21,13.37-122.66,28.19v0c-3.44,1.44-6.81,2.88-10,4.32l10.81,169.31c7.49,88.48,65.15,140,129.21,160.22,64.07-20.23,121.72-71.74,129.21-160.22L515,233.62c-3.21-1.67-6.57-3.28-10-4.86v0c-33.06-15.57-80.15-28.22-129.88-28.31H375Z"/><path class="cls-5" d="M375,317.57l-31.62,61.75L323,352.76l-53.41,70.6c1,4.38,2.1,8.61,3.33,12.74,6,10.07,17.43,21.56,32.14,21.56,11.67,0,23.33-9.33,35-9.33s23.34,9.33,35,9.33,23.33-9.33,35-9.33,23.34,9.33,35,9.33c14.57,0,26-11.28,32-21.28,1.28-4.24,2.44-8.61,3.43-13.12l-53.35-70.5-20.44,26.56ZM340,457.66c-11.66,0-23.33,9.34-35,9.34a38.41,38.41,0,0,1-23.31-7.91c2.17,4.6,4.46,9.08,7,13.32a30.85,30.85,0,0,0,16.34,5c11.67,0,23.34-9.34,35-9.34s23.34,9.34,35,9.34,23.34-9.34,35-9.34,23.34,9.34,35,9.34a30.69,30.69,0,0,0,16.12-4.9c2.51-4.23,4.81-8.69,7-13.28A38.44,38.44,0,0,1,445,467c-11.67,0-23.34-9.34-35-9.34S386.7,467,375,467s-23.34-9.34-35-9.34Zm0,19.77c-11.66,0-23.33,9.33-35,9.33a38.14,38.14,0,0,1-7.28-.74c20.18,27,47.73,45,77.26,55.4,29.48-10.37,57-28.43,77.16-55.36a38.37,38.37,0,0,1-7.12.7c-11.67,0-23.34-9.33-35-9.33s-23.33,9.33-35,9.33-23.34-9.33-35-9.33Z"/><g id="a"><path id="b" class="cls-6" d="M322.39,223.06h26.47L335.63,246"/><path id="b-2" class="cls-6" d="M322.39,238.34h26.47l-13.23-22.92"/></g><g id="a-2"><path id="b-3" class="cls-6" d="M401.19,223.06h26.48L414.43,246"/><path id="b-4" class="cls-6" d="M401.19,238.34h26.48l-13.24-22.92"/></g><g id="a-3"><path id="b-5" class="cls-6" d="M361.79,275.83h26.48L375,298.76"/><path id="b-6" class="cls-6" d="M361.79,291.11h26.48L375,268.19"/></g><path class="cls-7" d="M375,256.51c-1.73,0-3.46,0-5.18.09C371.51,256.56,373.24,256.51,375,256.51Zm-89.68,19.57c-2.38,1-4.7,2-6.91,3l7.46,116.87C291,457,330.8,492.55,375,506.51c44.22-14,84-49.52,89.19-110.58l7.42-116.5c-2.22-1.15-4.54-2.26-6.91-3.35l-6.93,116C453,451.43,416.05,486,375,499.57,334,486,297,451.43,292.21,392.06Z"/></svg>